<?xml version="1.0" encoding="UTF-8"?>
<!DOCTYPE svg PUBLIC "-//W3C//DTD SVG 1.1//EN" "http://www.w3.org/Graphics/SVG/1.1/DTD/svg11.dtd">
<!-- Creator: CorelDRAW 2020 (64-Bit) -->
<svg xmlns="http://www.w3.org/2000/svg" xml:space="preserve" width="1920px" height="1080px" version="1.1" shape-rendering="geometricPrecision" text-rendering="geometricPrecision" image-rendering="optimizeQuality" fill-rule="evenodd" clip-rule="evenodd"
viewBox="0 0 1920 1080"
 xmlns:xlink="http://www.w3.org/1999/xlink"
 xmlns:xodm="http://www.corel.com/coreldraw/odm/2003">
 <defs>
   <radialGradient id="id0" gradientUnits="userSpaceOnUse" gradientTransform="matrix(1 -0 -0 0.562499 0 236)" cx="960" cy="540" r="960" fx="960" fy="540">
    <stop offset="0" stop-opacity="1" stop-color="white"/>
    <stop offset="1" stop-opacity="1" stop-color="#6699FF"/>
   </radialGradient>
   <linearGradient id="id1" gradientUnits="userSpaceOnUse" x1="993" y1="216.77" x2="1006.38" y2="997.46">
    <stop offset="0" stop-opacity="1" stop-color="#F0802A"/>
    <stop offset="0.368627" stop-opacity="1" stop-color="#F0792A"/>
    <stop offset="0.560784" stop-opacity="1" stop-color="#F0722A"/>
    <stop offset="0.690196" stop-opacity="1" stop-color="#F07927"/>
    <stop offset="1" stop-opacity="1" stop-color="#F08024"/>
   </linearGradient>
   <linearGradient id="id2" gradientUnits="userSpaceOnUse" x1="1034.4" y1="712.49" x2="1236.43" y2="712.49">
    <stop offset="0" stop-opacity="1" stop-color="#EBAD66"/>
    <stop offset="0.741176" stop-opacity="0.560784" stop-color="#EBAD66"/>
    <stop offset="1" stop-opacity="0.117647" stop-color="#EBAD66"/>
   </linearGradient>
   <mask id="id3">
     <linearGradient id="id4" gradientUnits="userSpaceOnUse" x1="1264.09" y1="186.8" x2="909.08" y2="316.09">
      <stop offset="0" stop-opacity="0" stop-color="white"/>
      <stop offset="1" stop-opacity="1" stop-color="white"/>
     </linearGradient>
    <rect fill="url(#id4)" x="888.94" y="142.68" width="395.29" height="217.53"/>
   </mask>
   <mask id="id5">
     <linearGradient id="id6" gradientUnits="userSpaceOnUse" x1="476.13" y1="224.75" x2="703.52" y2="283.57">
      <stop offset="0" stop-opacity="0" stop-color="white"/>
      <stop offset="1" stop-opacity="1" stop-color="white"/>
     </linearGradient>
    <rect fill="url(#id6)" x="470.38" y="161.71" width="238.89" height="184.91"/>
   </mask>
 </defs>
 <g id="图层_x0020_1">
  <metadata id="CorelCorpID_0Corel-Layer"/>
  <path fill="url(#id1)" d="M994.53 223.81c146.77,35.34 88.27,181.41 157.64,247.33 74.18,70.49 192.98,21.75 229.22,139.52 62.83,204.21 -173.2,386.86 -386.86,386.86 -213.65,0 -386.85,-173.2 -386.85,-386.86 0,-213.65 179.13,-436.86 386.85,-386.85z"/>
  <path fill="#220D60" d="M1231.96 926.07c-28.46,18.03 -59.33,33.16 -91.43,44.78 -7.65,-7.41 -26.99,-7.66 -28.22,-8.67 -5.98,-4.9 -25.88,-0.67 -32.61,-4.53 -18.16,-10.37 -58.78,2.16 -80.64,-2.71 -7.68,-1.71 -97.7,-46.14 -102.37,-49.83l110.14 -0.87c41.7,-6.43 83.33,-17.66 129.05,-15.3 32.91,1.7 27.26,18.12 45.05,27 13.25,6.62 34.27,7.16 51.03,10.13zm-606.43 -198.95c-11.58,-36.75 -17.85,-75.87 -17.85,-116.46 0,-6.56 0.17,-13.14 0.51,-19.72l13.9 5.78c24.61,13.06 23.53,42.13 29.18,57.11 3.52,9.36 95.19,2.3 98.65,26.59 2.72,19.1 41.93,48.2 48.02,65.23l-36.24 113.25c-5.25,-1.31 -72.35,-72.4 -77.01,-73.38 -5.51,-1.16 -52.33,-60.61 -59.16,-58.4z"/>
  <polygon fill="#EADE7C" points="727.76,314.41 854.59,314.41 929.79,852.56 669.78,756.53 "/>
  <path fill="#F22400" d="M865.48 392.33l13.42 96.03 -173.95 0 12.59 -96.03 147.94 0zm19.63 140.42l13.41 96.04 -211.99 0 12.59 -96.04 185.99 0zm19.62 140.43l13.42 96.03 -214.03 0 -34.34 -12.68 9.06 -69.08 1.87 -14.27 224.02 0z"/>
  <rect fill="#DDC000" x="720.28" y="187.57" width="148.58" height="110.83"/>
  <rect fill="#E6E6E6" x="733.97" y="176.7" width="121.22" height="121.71"/>
  <path fill="#B4210A" d="M714.62 283.61l159.91 0 0 39.86 -159.91 0 0 -39.86zm79.95 -201.13l59.12 54.94 59.12 54.94 -118.24 0 -118.22 0 59.11 -54.94 59.11 -54.94z"/>
  <path fill="black" d="M715.71 507.38l38.05 0 0 54.36 -38.05 0 0 -54.36zm125.02 264.55l41.68 0 0 67.04 -41.68 0 0 -67.04zm-137.7 -112.34l27.17 0 0 50.73 -27.17 0 0 -50.73z"/>
  <path fill="#29111B" d="M1146.32 968.72c-48.99,18.46 -101.02,28.8 -151.79,28.8 -177.14,0 -326.46,-119.06 -372.33,-281.52 13.98,0.86 33.9,3.77 37.97,4.63 4.89,1.03 9.47,3.85 14.98,5.23 2.04,3.4 8.23,4.72 16.33,15.06 22.58,28.83 23.12,24.95 66.64,30.61 41.99,5.47 52.47,7.01 85.18,27.84 3.55,2.26 6.3,5.26 10.1,6.53 11.58,20.26 23.36,26.73 34.46,29.54 8.35,4.21 41.13,11.55 51.89,12.59 10.79,4.89 30.65,5.7 42.78,19.45 7.79,8.83 2.08,13.82 15.59,31.15 3.16,3.5 6.62,3.93 7.15,5.58 4.9,3.87 37.2,11.11 45.26,12.91 22.95,5.11 39.69,10.3 58.75,21.19 7.07,4.05 14.83,10.77 21.1,15.92 1.1,0.89 8.74,7.68 15.94,14.49z"/>
  <path fill="#EBAD66" d="M1135.41 559.48c55.79,0 101.02,45.22 101.02,101.01l0 0 -202.03 0 0 0c0,-55.79 45.22,-101.01 101.01,-101.01z"/>
  <path fill="url(#id2)" d="M1124.65 764.49c25.79,0 74,-22.42 91.85,-39.67 9.32,-9.02 -29.29,-13.18 -23.56,-25.37 7.04,-14.94 43.49,-21.02 43.49,-38.96l0 0 -202.03 0 0 0c0,22.7 79.7,40.91 59.79,46.21 -33.55,8.92 -93.62,12.19 10.87,37.14 12.95,3.1 5.62,20.65 19.59,20.65z"/>
  <polygon fill="#EADE7C" mask="url(#id3)" points="889.44,194.17 1283.73,143.18 1283.73,359.71 889.44,294.48 "/>
  <polygon fill="#EADE7C" mask="url(#id5)" points="708.77,205.52 470.88,162.21 470.88,346.12 708.77,290.71 "/>
  <path fill="#E6E6E6" fill-opacity="0.800000" d="M1017.85 466.87l-1.56 1.1c-1.65,1.69 -2.36,3.75 -3.32,4.93 -9.34,-2.67 -22.71,-3.89 -23.21,7.73 -6.19,-0.05 -10.19,0.26 -12.81,4.2 -2.69,4.06 -3.4,8.49 -0.38,12.84 3.51,5.06 16.83,13.59 19.22,14.18 1.45,0.35 64.03,0.54 66.62,0.08 5.59,0.87 28.96,0.31 37.72,0.32 2.54,0.01 10.02,0.81 10.82,0.5 0.77,-0.68 0.57,-8.29 0.47,-9.84 -0.23,-3.42 -0.98,-5.48 -2.18,-8.11l-5.39 -9.63c-0.49,-0.54 -0.69,-0.69 -1.27,-1.16 -0.14,-0.12 -1.39,-1.07 -1.39,-1.08l-7.2 -2.94c-8.47,-1.7 -10.67,0.11 -15.52,2.22 -0.11,0.05 -0.24,0.1 -0.34,0.15 -1.99,0.91 -4.94,2.88 -7.78,2.89 -0.74,-4.42 -0.01,-1.5 -1.83,-4.42l-4.05 -7.64c-0.67,-1.11 -0.67,-0.86 -1.25,-1.61 -0.52,-0.65 -0.13,-0.11 -0.6,-0.84 -0.29,-0.43 -0.21,-0.45 -0.56,-0.93l-6.06 -6.01c-2.51,-2.73 -3.33,-2.89 -6.94,-4.79 -4.42,-2.33 -9.02,-4.62 -13.5,-2.81 -1.93,0.77 -2.66,0.23 -4.62,1.25l-8.75 5.78c-4.62,3.4 -2.33,2.93 -4.34,3.64z">
    <animateMotion dur="4s" repeatCount="indefinite" path="M0 0 h 100 Z"/>
    </path>
  <path fill="#E6E6E6" fill-opacity="0.800000" d="M1273.85 488.45l-2.92 2.06c-3.07,3.16 -4.4,7.03 -6.21,9.22 -17.47,-4.99 -42.47,-7.27 -43.42,14.47 -11.57,-0.09 -19.07,0.49 -23.96,7.86 -5.04,7.59 -6.36,15.88 -0.71,24.02 6.57,9.46 31.48,25.43 35.94,26.53 2.72,0.66 119.82,1.01 124.67,0.15 10.45,1.63 54.17,0.58 70.56,0.61 4.76,0 18.76,1.5 20.25,0.92 1.44,-1.26 1.07,-15.5 0.88,-18.41 -0.43,-6.4 -1.84,-10.24 -4.09,-15.17l-10.08 -18.02c-0.91,-1.01 -1.29,-1.29 -2.37,-2.17 -0.27,-0.22 -2.6,-2 -2.61,-2.01l-13.46 -5.51c-15.85,-3.17 -19.97,0.21 -29.03,4.15 -0.21,0.09 -0.45,0.19 -0.66,0.29 -3.71,1.71 -9.24,5.38 -14.56,5.4 -1.38,-8.27 0,-2.81 -3.42,-8.27l-7.56 -14.28c-1.26,-2.09 -1.25,-1.63 -2.35,-3.02 -0.97,-1.23 -0.23,-0.22 -1.13,-1.58 -0.53,-0.81 -0.39,-0.83 -1.03,-1.74l-11.35 -11.24c-4.7,-5.1 -6.22,-5.4 -12.99,-8.96 -8.26,-4.35 -16.86,-8.64 -25.24,-5.26 -3.61,1.44 -4.99,0.43 -8.65,2.34l-16.36 10.81c-8.66,6.37 -4.37,5.5 -8.14,6.81z">
  <animateMotion dur="5s" repeatCount="indefinite" path="M0 0 h -80 Z"/>
  </path>
  </g>
</svg>
