<?xml version="1.0" encoding="UTF-8"?>
<!DOCTYPE svg PUBLIC "-//W3C//DTD SVG 1.1//EN" "http://www.w3.org/Graphics/SVG/1.1/DTD/svg11.dtd">
<!-- Creator: CorelDRAW 2020 (64-Bit) -->
<svg xmlns="http://www.w3.org/2000/svg" xml:space="preserve" width="1920px" height="400px" version="1.1" shape-rendering="geometricPrecision" text-rendering="geometricPrecision" image-rendering="optimizeQuality" fill-rule="evenodd" clip-rule="evenodd"
viewBox="0 0 1920 400"
 xmlns:xlink="http://www.w3.org/1999/xlink"
 xmlns:xodm="http://www.corel.com/coreldraw/odm/2003">
 <g id="图层_x0020_1">
  <metadata id="CorelCorpID_0Corel-Layer"/>
  <path fill="#00CCFF" d="M2015.98 0c53.03,0 96.03,42.95 96.03,95.98 0,-53.03 42.95,-95.98 95.98,-95.98 53.03,0 96.03,42.95 96.03,95.98 0,-53.03 42.95,-95.98 95.98,-95.98 53.03,0 95.98,42.95 95.98,95.98 0,-53.03 43,-95.98 96.03,-95.98 52.99,0 95.98,42.95 95.98,95.98 0,-53.03 43,-95.98 96.03,-95.98 52.99,0 95.98,42.95 95.98,95.98 0,-53.03 42.99,-95.98 95.98,-95.98 53.03,0 96.03,42.95 96.03,95.98 0,-53.03 42.95,-95.98 95.98,-95.98 53.03,0 96.03,42.95 96.03,95.98 0,-53.03 42.95,-95.98 95.98,-95.98 53.03,0 95.98,42.95 95.98,95.98 0,-53.03 43,-95.98 96.03,-95.98 52.99,0 95.98,42.95 95.98,95.98 0,-53.03 43,-95.98 96.03,-95.98 52.99,0 95.98,42.95 95.98,95.98 0,-53.03 42.99,-95.98 95.98,-95.98 53.03,0 96.03,42.95 96.03,95.98 0,-53.03 42.95,-95.98 95.98,-95.98 53.03,0 95.98,42.95 95.98,95.98 0,-53.03 43,-95.98 96.03,-95.98 53.03,0 95.98,42.95 95.98,95.98 0,-53.03 43,-95.98 96.03,-95.98 52.99,0 95.98,42.95 95.98,95.98 0,-53.03 43,-95.98 95.98,-95.98 53.04,0 96.03,42.95 96.03,95.98 0,-53.03 42.99,-95.98 95.98,-95.98 53.03,0 96.03,42.95 96.03,95.98 0,-53.03 42.95,-95.98 95.98,-95.98 53.03,0 95.98,42.95 95.98,95.98 0,-53.03 43,-95.98 96.03,-95.98 53.03,0 95.98,42.95 95.98,95.98 0,-53.03 43,-95.98 96.03,-95.98 52.99,0 95.98,42.95 95.98,95.98 0,-53.03 43,-95.98 95.98,-95.98 53.04,0 96.03,42.95 96.03,95.98l0 108.54 -1824.6 0 -95.4 0 -1920 0 0 -108.54c0,-53.03 42.99,-95.98 95.98,-95.98z">
<animateMotion dur="10s" repeatCount="indefinite" path="M-1920 0 h -1920"/>
  </path>
  <path fill="#6699FF" d="M95.98 100c53.03,0 96.03,42.95 96.03,95.98 0,-53.03 42.95,-95.98 95.98,-95.98 53.03,0 96.03,42.95 96.03,95.98 0,-53.03 42.95,-95.98 95.98,-95.98 53.03,0 95.98,42.95 95.98,95.98 0,-53.03 43,-95.98 96.03,-95.98 52.99,0 95.98,42.95 95.98,95.98 0,-53.03 43,-95.98 96.03,-95.98 52.99,0 95.98,42.95 95.98,95.98 0,-53.03 42.99,-95.98 95.98,-95.98 53.03,0 96.03,42.95 96.03,95.98 0,-53.03 42.95,-95.98 95.98,-95.98 53.03,0 96.03,42.95 96.03,95.98 0,-53.03 42.95,-95.98 95.98,-95.98 53.03,0 95.98,42.95 95.98,95.98 0,-53.03 43,-95.98 96.03,-95.98 52.99,0 95.98,42.95 95.98,95.98 0,-53.03 43,-95.98 96.03,-95.98 52.99,0 95.98,42.95 95.98,95.98 0,-53.03 42.99,-95.98 95.98,-95.98 53.03,0 96.03,42.95 96.03,95.98 0,-53.03 42.95,-95.98 95.98,-95.98 53.03,0 95.98,42.95 95.98,95.98 0,-53.03 43,-95.98 96.03,-95.98 53.03,0 95.98,42.95 95.98,95.98 0,-53.03 43,-95.98 96.03,-95.98 52.99,0 95.98,42.95 95.98,95.98 0,-53.03 43,-95.98 95.98,-95.98 53.04,0 96.03,42.95 96.03,95.98 0,-53.03 42.99,-95.98 95.98,-95.98 53.03,0 96.03,42.95 96.03,95.98 0,-53.03 42.95,-95.98 95.98,-95.98 53.03,0 95.98,42.95 95.98,95.98 0,-53.03 43,-95.98 96.03,-95.98 53.03,0 95.98,42.95 95.98,95.98 0,-53.03 43,-95.98 96.03,-95.98 52.99,0 95.98,42.95 95.98,95.98 0,-53.03 43,-95.98 95.98,-95.98 53.04,0 96.03,42.95 96.03,95.98l0 108.54 -1824.6 0 -95.4 0 -1920 0 0 -108.54c0,-53.03 42.99,-95.98 95.98,-95.98z">
  <animateMotion dur="10s" repeatCount="indefinite" path="M-1920 0 h 1920"/>
  </path>
  <path fill="#003399" d="M2015.98 200c53.03,0 96.03,42.95 96.03,95.98 0,-53.03 42.95,-95.98 95.98,-95.98 53.03,0 96.03,42.95 96.03,95.98 0,-53.03 42.95,-95.98 95.98,-95.98 53.03,0 95.98,42.95 95.98,95.98 0,-53.03 43,-95.98 96.03,-95.98 52.99,0 95.98,42.95 95.98,95.98 0,-53.03 43,-95.98 96.03,-95.98 52.99,0 95.98,42.95 95.98,95.98 0,-53.03 42.99,-95.98 95.98,-95.98 53.03,0 96.03,42.95 96.03,95.98 0,-53.03 42.95,-95.98 95.98,-95.98 53.03,0 96.03,42.95 96.03,95.98 0,-53.03 42.95,-95.98 95.98,-95.98 53.03,0 95.98,42.95 95.98,95.98 0,-53.03 43,-95.98 96.03,-95.98 52.99,0 95.98,42.95 95.98,95.98 0,-53.03 43,-95.98 96.03,-95.98 52.99,0 95.98,42.95 95.98,95.98 0,-53.03 42.99,-95.98 95.98,-95.98 53.03,0 96.03,42.95 96.03,95.98 0,-53.03 42.95,-95.98 95.98,-95.98 53.03,0 95.98,42.95 95.98,95.98 0,-53.03 43,-95.98 96.03,-95.98 53.03,0 95.98,42.95 95.98,95.98 0,-53.03 43,-95.98 96.03,-95.98 52.99,0 95.98,42.95 95.98,95.98 0,-53.03 43,-95.98 95.98,-95.98 53.04,0 96.03,42.95 96.03,95.98 0,-53.03 42.99,-95.98 95.98,-95.98 53.03,0 96.03,42.95 96.03,95.98 0,-53.03 42.95,-95.98 95.98,-95.98 53.03,0 95.98,42.95 95.98,95.98 0,-53.03 43,-95.98 96.03,-95.98 53.03,0 95.98,42.95 95.98,95.98 0,-53.03 43,-95.98 96.03,-95.98 52.99,0 95.98,42.95 95.98,95.98 0,-53.03 43,-95.98 95.98,-95.98 53.04,0 96.03,42.95 96.03,95.98l0 108.54 -1824.6 0 -95.4 0 -1920 0 0 -108.54c0,-53.03 42.99,-95.98 95.98,-95.98z">
  <animateMotion dur="10s" repeatCount="indefinite" path="M-1920 0 h -1920"/>
  </path>
 </g>
</svg>
