<?xml version="1.0" encoding="UTF-8"?>
<!DOCTYPE svg PUBLIC "-//W3C//DTD SVG 1.1//EN" "http://www.w3.org/Graphics/SVG/1.1/DTD/svg11.dtd">
<!-- Creator: CorelDRAW 2020 (64-Bit) -->
<svg xmlns="http://www.w3.org/2000/svg" xml:space="preserve" width="1920px" height="1080px" version="1.1" shape-rendering="geometricPrecision" text-rendering="geometricPrecision" image-rendering="optimizeQuality" fill-rule="evenodd" clip-rule="evenodd"
viewBox="0 0 1920 1080"
 xmlns:xlink="http://www.w3.org/1999/xlink"
 xmlns:xodm="http://www.corel.com/coreldraw/odm/2003">
 <g id="图层_x0020_1">
  <metadata id="CorelCorpID_0Corel-Layer"/>
  <g id="背景">
   <rect fill="white" width="1920" height="1080"/>
   <polygon fill="#FAFFDA" points="0,258.75 227,436 591,276 1103,372 1339,120 1920,181.41 1920,616 0,616 "/>
   <polygon fill="#ECF1E5" points="1920,616 0,616 0,1080 1920,1080 "/>
   <polygon fill="#FAFFDA" points="0,840 1920,840 1920,1080 0,1080 "/>
   <path fill="#9FB2AF" d="M0 1074.95l539 -118.95 120.65 124 -659.65 0 0 -5.05zm785.22 5.05l357.78 -84 37.06 84 -394.84 0zm663.15 0l358.63 -76 113 21.67 0 54.33 -471.63 0z"/>
   <path fill="#FAE8E4" d="M1364.9 0c33.11,29.22 52.1,63.2 52.1,99.47 0,109.24 -172.17,197.8 -384.55,197.8 -212.38,0 -384.55,-88.56 -384.55,-197.8 0,-36.27 18.98,-70.25 52.1,-99.47l664.9 0z"/>
   <polygon fill="#F7E3C2" points="1018.31,78.67 1071.56,78.67 1071.56,240.46 1172.76,187.44 1180.32,201.88 1071.56,258.86 1071.56,595.98 1018.31,595.98 1018.31,286.76 1016.88,287.51 1009.31,273.07 1018.31,268.36 "/>
  </g>
  <g id="车">
   <path fill="black" d="M971 613.71c23.37,0 42.31,30 42.31,67 0,37 -18.94,67 -42.31,67 -23.37,0 -42.32,-30 -42.32,-67 0,-37 18.95,-67 42.32,-67z"/>
   <path fill="black" d="M645 608.71c21.28,0 38.53,27.31 38.53,61 0,33.69 -17.25,61 -38.53,61 -21.28,0 -38.53,-27.31 -38.53,-61 0,-33.69 17.25,-61 38.53,-61z"/>
   <path fill="#C65154" d="M537.46 364.75l677.76 -18.25c10.99,-0.29 20.23,8.46 20.53,19.46l2.37 87.97c0.29,11 -8.46,20.23 -19.46,20.53l-64 1.72c2.56,3.26 4.13,7.33 4.24,11.78l1.32 55.59 62.98 -1.93c12.58,-0.39 23.11,9.59 23.4,22.17l2.39 100.63c0.19,8.01 -3.81,15.22 -9.99,19.5l0 13.79c0,11 -9,20 -20,20l-194.04 0c-11,0 -20,-9 -20,-20l0 -5.36c-13.42,-34.38 -23.62,-71.4 -51.99,-61.32 -12.07,4.28 -17.97,24.31 -17.97,49.68 0,5.62 0.51,11.04 1.47,16.16l-263.16 8.05c1.74,-23.44 -4.06,-83.98 -36.31,-87.21 -19.78,-1.98 -28,29.22 -28,52 0,22.78 3.23,26.97 8.57,36.92l-67.83 2.07c-12.58,0.39 -23.11,-9.59 -23.41,-22.17l-2.39 -100.63c-0.07,-3.21 0.52,-6.28 1.66,-9.09l-1.66 -69.53c-0.15,-6.65 3,-12.67 7.95,-16.47 -6.62,-3.12 -11.3,-9.78 -11.51,-17.56l-2.37 -87.97c-0.3,-10.99 8.46,-20.23 19.45,-20.53z"/>
   <path fill="#C78C7A" d="M543 501.71l50 0c2.75,0 5,2.25 5,5l0 45c0,2.76 -2.25,5 -5,5l-50 0c-2.75,0 -5,-2.24 -5,-5l0 -45c0,-2.75 2.25,-5 5,-5z"/>
   <path fill="#C78C7A" d="M615.4 501.71l50 0c2.75,0 5,2.25 5,5l0 45c0,2.76 -2.25,5 -5,5l-50 0c-2.75,0 -5,-2.24 -5,-5l0 -45c0,-2.75 2.25,-5 5,-5z"/>
   <path fill="#C78C7A" d="M687.8 501.71l50 0c2.75,0 5,2.25 5,5l0 45c0,2.76 -2.25,5 -5,5l-50 0c-2.75,0 -5,-2.24 -5,-5l0 -45c0,-2.75 2.25,-5 5,-5z"/>
   <path fill="#C78C7A" d="M760.2 501.71l50 0c2.75,0 5,2.25 5,5l0 45c0,2.76 -2.25,5 -5,5l-50 0c-2.75,0 -5,-2.24 -5,-5l0 -45c0,-2.75 2.25,-5 5,-5z"/>
   <path fill="#C78C7A" d="M832.6 501.71l50 0c2.75,0 5,2.25 5,5l0 45c0,2.76 -2.25,5 -5,5l-50 0c-2.75,0 -5,-2.24 -5,-5l0 -45c0,-2.75 2.25,-5 5,-5z"/>
   <path fill="#9F474C" d="M905.45 501.71l49.09 0c3,0 5.46,2.46 5.46,5.46l0 119.26c-6.71,3.4 -12.56,9.84 -16.91,18.28l-37.64 0c-3,0 -5.45,-2.45 -5.45,-5.45l0 -132.09c0,-3 2.45,-5.46 5.45,-5.46z"/>
   <path fill="#C78C7A" d="M543 392.71l50 0c2.75,0 5,2.25 5,5l0 45c0,2.76 -2.25,5 -5,5l-50 0c-2.75,0 -5,-2.24 -5,-5l0 -45c0,-2.75 2.25,-5 5,-5z"/>
   <path fill="#C78C7A" d="M617 392.71l50 0c2.75,0 5,2.25 5,5l0 45c0,2.76 -2.25,5 -5,5l-50 0c-2.75,0 -5,-2.24 -5,-5l0 -45c0,-2.75 2.25,-5 5,-5z"/>
   <path fill="#C78C7A" d="M691 392.71l50 0c2.75,0 5,2.25 5,5l0 45c0,2.76 -2.25,5 -5,5l-50 0c-2.75,0 -5,-2.24 -5,-5l0 -45c0,-2.75 2.25,-5 5,-5z"/>
   <path fill="#C78C7A" d="M765 392.71l50 0c2.75,0 5,2.25 5,5l0 45c0,2.76 -2.25,5 -5,5l-50 0c-2.75,0 -5,-2.24 -5,-5l0 -45c0,-2.75 2.25,-5 5,-5z"/>
   <path fill="#C78C7A" d="M839 392.71l50 0c2.75,0 5,2.25 5,5l0 45c0,2.76 -2.25,5 -5,5l-50 0c-2.75,0 -5,-2.24 -5,-5l0 -45c0,-2.75 2.25,-5 5,-5z"/>
   <path fill="#C78C7A" d="M913 392.71l50 0c2.75,0 5,2.25 5,5l0 45c0,2.76 -2.25,5 -5,5l-50 0c-2.75,0 -5,-2.24 -5,-5l0 -45c0,-2.75 2.25,-5 5,-5z"/>
   <path fill="#FEEBE0" d="M1031.91 378.71l89.18 0c3.25,0 5.91,2.66 5.91,5.91l0 53.18c0,3.26 -2.66,5.91 -5.91,5.91l-89.18 0c-3.25,0 -5.91,-2.65 -5.91,-5.91l0 -53.18c0,-3.25 2.66,-5.91 5.91,-5.91z"/>
   <path fill="#FEEBE0" d="M1137.91 378.71l68.18 0c3.25,0 5.91,2.66 5.91,5.91l0 53.18c0,3.26 -2.66,5.91 -5.91,5.91l-68.18 0c-3.25,0 -5.91,-2.65 -5.91,-5.91l0 -53.18c0,-3.25 2.66,-5.91 5.91,-5.91z"/>
   <polygon fill="#C65154" points="606,519.34 674.8,519.34 674.8,529.21 606,529.21 "/>
   <polygon fill="#C65154" points="750,524.84 820.4,524.84 820.4,534.71 750,534.71 "/>
   <path fill="#FFF7EC" d="M1129.91 699.25l52.99 -1.07c2.75,-0.05 5.04,2.15 5.1,4.9l0.56 27.99c0.06,2.75 -2.15,5.05 -4.89,5.1l-53 1.07c-2.75,0.06 -5.04,-2.14 -5.1,-4.89l-0.56 -28c-0.06,-2.75 2.15,-5.04 4.9,-5.1z"/>
   <path fill="#CF8C8E" d="M1027 499.71l89 0c3.3,0 6,2.7 6,6l0 73c0,3.3 -2.7,6 -6,6l-89 0c-3.3,0 -6,-2.7 -6,-6l0 -73c0,-3.3 2.7,-6 6,-6z"/>
   <path fill="#CF8C8E" d="M1071.38 584.71l-31.76 0c-0.4,-1.9 -0.62,-3.92 -0.62,-6 0,-12.15 7.39,-22 16.5,-22 9.11,0 16.5,9.85 16.5,22 0,2.08 -0.22,4.1 -0.62,6z"/>
   <path fill="#FFF7EC" d="M1133 502.12l12 0c2.75,0 5,2.24 5,5l0 37c0,2.75 -2.25,5 -5,5l-12 0c-2.75,0 -5,-2.25 -5,-5l0 -37c0,-2.76 2.25,-5 5,-5z"/>
   <path fill="#FFF7EC" d="M1103.98 619.92l88.97 -2.39c10.99,-0.29 20.23,8.46 20.53,19.46l0.99 36.98c0.3,11 -8.46,20.24 -19.45,20.53l-88.97 2.4c-11,0.29 -20.24,-8.46 -20.53,-19.46l-1 -36.99c-0.29,-10.99 8.46,-20.23 19.46,-20.53z"/>
   <path fill="#71454C" d="M1104.09 623.92c-8.78,0.24 -15.8,7.65 -15.57,16.43l1 36.98c0.23,8.78 7.64,15.8 16.42,15.57l43.68 -1.18c-0.02,-1.58 -0.04,-3.22 -0.04,-4.91l-0.08 -54.41c-0.01,-3.43 0.03,-6.72 0.1,-9.7l-45.51 1.22zm55.31 67.54l35.51 -0.95c8.77,-0.24 15.8,-7.65 15.56,-16.43l-0.99 -36.99c-0.23,-8.78 -7.64,-15.8 -16.42,-15.56l-33.68 0.91c0.02,1.66 0.03,3.39 0.04,5.18l0.08 54.41c0,3.32 -0.03,6.52 -0.1,9.43z"/>
   <path fill="#FFF7EC" d="M1052.5 640.71c4.69,0 8.5,6.5 8.5,14.5 0,8.01 -3.81,14.5 -8.5,14.5 -4.7,0 -8.5,-6.49 -8.5,-14.5 0,-8 3.8,-14.5 8.5,-14.5z"/>
   <path fill="#FFF7EC" d="M1233.5 623.72c4.69,0 8.5,6.49 8.5,14.49 0,8.01 -3.81,14.5 -8.5,14.5 -4.7,0 -8.5,-6.49 -8.5,-14.5 0,-8 3.8,-14.49 8.5,-14.49z"/>
   <path fill="#FEEBE0" d="M1056.5 525.71c9.11,0 16.5,8.06 16.5,18 0,9.95 -7.39,18 -16.5,18 -9.11,0 -16.5,-8.05 -16.5,-18 0,-9.94 7.39,-18 16.5,-18z"/>
   <path fill="#6699FF" d="M1054.15 522.3c10.03,0 18.16,3.67 18.16,8.21 0,4.53 -8.13,8.2 -18.16,8.2 -10.02,0 -18.15,-3.67 -18.15,-8.2 0,-4.54 8.13,-8.21 18.15,-8.21z"/>
   <path fill="#C65154" d="M1021 545.62l101 0 0 5 -101 0 0 -5zm5 -146.53l186 0 0 13.62 -186 0 0 -13.62z"/>
   <path fill="#6699FF" d="M1071.38 584.71l-31.76 0c-0.4,-1.9 -0.62,-3.92 -0.62,-6 0,-12.15 7.39,-22 16.5,-22 9.11,0 16.5,9.85 16.5,22 0,2.08 -0.22,4.1 -0.62,6z"/>
   <path fill="#C65154" d="M609 412.91l23 0 0 -11.2 8 0 0 11.2 17.26 0 0 -20.2 17.74 0 0 20.2 0 11 0 18.8 -17.74 0 0 -18.8 -17.26 0 0 12.8 -8 0 0 -12.8 -23 0 0 -11zm223.6 81.8l42.16 0 0 69 -42.16 0 0 -69zm-112.84 0l18.04 0 0 69 -18.04 0 0 -69zm136 -80.43l0 39.43 -9 0 0 -39.43 -18.76 0 0 -9 72 0 0 9 -44.24 0zm-72.5 -4.5l41.74 0 0 4.5 -41.74 0 0 41.43 -14 0 0 -71 14 0 0 25.07zm-67.26 -25.07l17.76 0 0 71 -17.76 0 0 -71z"/>
   <polygon fill="#9F474C" points="899,659.71 916,659.71 916,682.71 899,682.71 "/>
   <animateTransform  attributeType="XML"
   attributeName="transform"
   type='translate'
   from="-1000 0" to="1000 0"
   dur="5s"/> 
  </g>
  <g id="前景">
   <path fill="#FAE8E4" d="M566.85 0c-6.21,155.18 -252.68,280 -555.85,280 -3.68,0 -7.34,-0.04 -11,-0.07l0 -279.93 566.85 0z"/>
   <polygon fill="#F7E3C2" points="67.55,0 67.55,259.04 213.87,158.68 224.8,186 67.55,293.86 67.55,932 0,932 0,0 "/>
  </g>
 </g>
</svg>
